{
  "accessors": [
    {
      "bufferView": 3,
      "componentType": 5126,
      "count": 18971,
      "max": [
        5.43439245223999,
        11.661928176879883,
        2.2912211418151855
      ],
      "min": [
        -5.426371097564697,
        -5.7352447509765625,
        -1.9199423789978027
      ],
      "type": "VEC3"
    },
    {
      "bufferView": 3,
      "byteOffset": 227652,
      "componentType": 5126,
      "count": 18971,
      "max": [
        1.0,
        1.0,
        1.0
      ],
      "min": [
        -1.0,
        -1.0,
        -1.0
      ],
      "type": "VEC3"
    },
    {
      "bufferView": 2,
      "componentType": 5126,
      "count": 18971,
      "max": [
        0.9970600008964539,
        0.9953122735023499
      ],
      "min": [
        -0.000995660899206996,
        0.0037397027481347322
      ],
      "type": "VEC2"
    },
    {
      "bufferView": 1,
      "componentType": 5125,
      "count": 73632,
      "type": "SCALAR"
    },
    {
      "bufferView": 5,
      "componentType": 5126,
      "count": 10,
      "max": [
        1.0,
        0.8151324391365051,
        0.011912004090845585,
        0.0,
        0.8151866793632507,
        1.0,
        0.005421007052063942,
        0.0,
        2.7939665869780583e-07,
        0.014528272673487663,
        1.0005789995193481,
        0.0,
        3.0800514221191406,
        2.774733781814575,
        0.0901300385594368,
        1.0
      ],
      "min": [
        -1.0002000331878662,
        -0.8151311874389648,
        -0.011911911889910698,
        0.0,
        -0.8151878118515015,
        -0.9999556541442871,
        -0.032357558608055115,
        0.0,
        -1.8812713165061723e-07,
        -0.03448064252734184,
        0.9994052648544312,
        0.0,
        -3.07539701461792,
        -3.7754812240600586,
        -0.036920882761478424,
        1.0
      ],
      "type": "MAT4"
    },
    {
      "bufferView": 0,
      "componentType": 5123,
      "count": 18971,
      "type": "VEC4"
    },
    {
      "bufferView": 4,
      "componentType": 5126,
      "count": 18971,
      "max": [
        1.0,
        0.0,
        0.0,
        0.0
      ],
      "min": [
        1.0,
        0.0,
        0.0,
        0.0
      ],
      "type": "VEC4"
    }
  ],
  "asset": {
    "extras": {
      "author": "Ji3D (https://sketchfab.com/ji3d)",
      "license": "CC-BY-4.0 (http://creativecommons.org/licenses/by/4.0/)",
      "source": "https://sketchfab.com/3d-models/lego-spiderman-a8acef5e02214bdd8360b003bfea5292",
      "title": "Lego Spiderman"
    },
    "generator": "Sketchfab-12.68.0",
    "version": "2.0"
  },
  "bufferViews": [
    {
      "buffer": 0,
      "byteLength": 151768,
      "byteStride": 8,
      "name": "shortBufferViews",
      "target": 34962
    },
    {
      "buffer": 0,
      "byteLength": 294528,
      "byteOffset": 151768,
      "name": "floatBufferViews",
      "target": 34963
    },
    {
      "buffer": 0,
      "byteLength": 151768,
      "byteOffset": 446296,
      "byteStride": 8,
      "name": "floatBufferViews",
      "target": 34962
    },
    {
      "buffer": 0,
      "byteLength": 455304,
      "byteOffset": 598064,
      "byteStride": 12,
      "name": "floatBufferViews",
      "target": 34962
    },
    {
      "buffer": 0,
      "byteLength": 303536,
      "byteOffset": 1053368,
      "byteStride": 16,
      "name": "floatBufferViews",
      "target": 34962
    },
    {
      "buffer": 0,
      "byteLength": 640,
      "byteOffset": 1356904,
      "name": "floatBufferViews"
    }
  ],
  "buffers": [
    {
      "byteLength": 1357544,
      "uri": "scene.bin"
    }
  ],
  "images": [
    {
      "uri": "textures/lego_baseColor.png"
    },
    {
      "uri": "textures/lego_metallicRoughness.png"
    }
  ],
  "materials": [
    {
      "doubleSided": true,
      "name": "lego",
      "pbrMetallicRoughness": {
        "baseColorTexture": {
          "index": 0
        },
        "metallicFactor": 0.0,
        "metallicRoughnessTexture": {
          "index": 1
        }
      }
    }
  ],
  "meshes": [
    {
      "name": "Object_0",
      "primitives": [
        {
          "attributes": {
            "JOINTS_0": 5,
            "NORMAL": 1,
            "POSITION": 0,
            "TEXCOORD_0": 2,
            "TEXCOORD_1": 2,
            "TEXCOORD_2": 2,
            "WEIGHTS_0": 6
          },
          "indices": 3,
          "material": 0,
          "mode": 4
        }
      ]
    }
  ],
  "nodes": [
    {
      "children": [
        1
      ],
      "matrix": [
        1.0,
        0.0,
        0.0,
        0.0,
        0.0,
        2.220446049250313e-16,
        -1.0,
        0.0,
        0.0,
        1.0,
        2.220446049250313e-16,
        0.0,
        0.0,
        0.0,
        0.0,
        1.0
      ],
      "name": "Sketchfab_model"
    },
    {
      "children": [
        2
      ],
      "name": "root"
    },
    {
      "children": [
        3
      ],
      "matrix": [
        1.0,
        0.0,
        0.0,
        0.0,
        0.0,
        2.220446049250313e-16,
        1.0,
        0.0,
        0.0,
        -1.0,
        2.220446049250313e-16,
        0.0,
        0.0,
        0.0,
        0.0,
        1.0
      ],
      "name": "GLTF_SceneRootNode"
    },
    {
      "children": [
        4
      ],
      "matrix": [
        1.0,
        0.0,
        0.0,
        0.0,
        0.0,
        1.0,
        0.0,
        0.0,
        0.0,
        0.0,
        1.0,
        0.0,
        0.004013754427433014,
        1.4104012250900269,
        0.02927551418542862,
        1.0
      ],
      "name": "Armature_10"
    },
    {
      "children": [
        5,
        7,
        6
      ],
      "name": "GLTF_created_0"
    },
    {
      "children": [
        8
      ],
      "name": "GLTF_created_0_rootJoint"
    },
    {
      "name": "Lego_man_9"
    },
    {
      "mesh": 0,
      "name": "Object_7",
      "skin": 0
    },
    {
      "children": [
        9,
        15,
        16
      ],
      "name": "Root_8",
      "rotation": [
        0.007264292798936367,
        -3.5711855694842143e-09,
        4.3477086819621036e-07,
        0.9999735951423645
      ],
      "scale": [
        1.0,
        0.9999999403953552,
        0.9999999403953552
      ],
      "translation": [
        7.674098014831543e-07,
        -0.882422685623169,
        -0.012821301817893982
      ]
    },
    {
      "children": [
        10,
        11,
        13
      ],
      "name": "Torso_5",
      "rotation": [
        -0.009974672459065914,
        1.0818390627775898e-08,
        -5.971072027932678e-07,
        0.9999502301216125
      ],
      "scale": [
        1.0,
        0.9999998807907104,
        0.9999999403953552
      ],
      "translation": [
        -5.6793288062857716e-14,
        0.8825157284736633,
        -3.930189507173054e-13
      ]
    },
    {
      "name": "Head_0",
      "rotation": [
        0.002710513537749648,
        -7.247944466826084e-09,
        1.6229923005539604e-07,
        0.9999963045120239
      ],
      "scale": [
        1.0,
        1.0,
        0.9999999403953552
      ],
      "translation": [
        -4.7411313969843855e-14,
        2.365115165710449,
        6.664807594702893e-14
      ]
    },
    {
      "children": [
        12
      ],
      "name": "Shoulder.L_2",
      "rotation": [
        -0.001430964912287891,
        0.007589028216898441,
        -0.8885610103607178,
        0.4586934745311737
      ],
      "scale": [
        0.9999998807907104,
        0.9999999403953552,
        0.9999999403953552
      ],
      "translation": [
        -1.6619931386685494e-07,
        2.365115165710449,
        3.099917433857513e-09
      ]
    },
    {
      "name": "Arm.L_1",
      "rotation": [
        -0.010903033427894115,
        0.006821667309850454,
        -0.2955891191959381,
        0.9552286267280579
      ],
      "translation": [
        9.826101177168312e-08,
        0.9310500621795654,
        -3.895175293422426e-09
      ]
    },
    {
      "children": [
        14
      ],
      "name": "Shoulder.R_4",
      "rotation": [
        -0.001430943375453353,
        -0.007589070126414299,
        0.8885616064071655,
        0.45869237184524536
      ],
      "scale": [
        1.0,
        1.0000001192092896,
        0.9999999403953552
      ],
      "translation": [
        -4.7411313969843855e-14,
        2.365115165710449,
        6.664807594702893e-14
      ]
    },
    {
      "name": "Arm.R_3",
      "rotation": [
        -0.010902995243668556,
        -0.00682165939360857,
        0.29558828473091125,
        0.955228865146637
      ],
      "scale": [
        0.9999999403953552,
        0.9999998807907104,
        0.9999998807907104
      ],
      "translation": [
        -9.986877103074221e-08,
        0.9310479760169983,
        -1.087761969387202e-08
      ]
    },
    {
      "name": "Leg.L_6",
      "rotation": [
        0.00016039068577811122,
        0.007266021799296141,
        0.9999624490737915,
        -0.004715684335678816
      ],
      "scale": [
        1.0001641511917114,
        0.9999998211860657,
        1.0003886222839355
      ],
      "translation": [
        0.49805760383605957,
        0.9198938012123108,
        -0.01336575485765934
      ]
    },
    {
      "name": "Leg.R_7",
      "rotation": [
        0.00015376369992736727,
        0.007261022925376892,
        0.9999624490737915,
        0.004724342375993729
      ],
      "scale": [
        0.9997556805610657,
        0.9999996423721313,
        0.9994212985038757
      ],
      "translation": [
        -0.4980546236038208,
        0.9198947548866272,
        -0.01336575485765934
      ]
    }
  ],
  "samplers": [
    {
      "magFilter": 9729,
      "minFilter": 9987,
      "wrapS": 10497,
      "wrapT": 10497
    }
  ],
  "scene": 0,
  "scenes": [
    {
      "name": "Sketchfab_Scene",
      "nodes": [
        0
      ]
    }
  ],
  "skins": [
    {
      "inverseBindMatrices": 4,
      "joints": [
        5,
        8,
        9,
        10,
        11,
        12,
        13,
        14,
        15,
        16
      ],
      "skeleton": 5
    }
  ],
  "textures": [
    {
      "sampler": 0,
      "source": 0
    },
    {
      "sampler": 0,
      "source": 1
    }
  ]
}
